<svg height='100px' width='100px'  fill="#000000" xmlns="http://www.w3.org/2000/svg" xmlns:xlink="http://www.w3.org/1999/xlink" version="1.1" x="0px" y="0px" viewBox="0 0 128 128" style="enable-background:new 0 0 128 128;" xml:space="preserve"><g><path d="M37.2025757,43.9675903l5.6934814-2.1966553C46.1036987,46.7189941,51.6641235,50,58,50   s11.8963013-3.2810059,15.1039429-8.2290649l5.6934814,2.1966553c1.4014893,0.5407104,2.8933105-0.5198364,2.8552856-2.0214844   C81.4439087,33.6984253,78.9135742,11.9052124,58,11.9052124S34.5560913,33.6984253,34.34729,41.946106   C34.3092651,43.4477539,35.8010864,44.5083008,37.2025757,43.9675903z M42.2918701,29h8.7238159   c0.5546875,0,1.086792-0.2194214,1.4802246-0.6104126l2.4940796-2.4784546   c0.8226318-0.8175659,2.1523438-0.8133545,2.9698486,0.0093384l2.4442749,2.4597778   C60.7983398,28.7769165,61.3344727,29,61.8937378,29h11.8143921C73.8936157,29.9729614,74,30.9738159,74,32   c0,8.8224487-7.1775513,16-16,16s-16-7.1775513-16-16C42,30.9738159,42.1063843,29.9729614,42.2918701,29z"></path><path d="M92.6470337,36.0795288C93.4432373,36.3275146,94,37.041626,94,37.8755493v0.8239136   c0,1.0405884,0.8484497,1.8815308,1.8890381,1.8723145l0.1287231-0.0011597C97.1153564,40.5608521,98,39.6686401,98,38.4918823   v-0.6088257c0-0.8179321,0.5526733-1.5115967,1.3341675-1.7530518c3.2460327-1.0027466,5.5692749-3.5819702,5.5692749-7.2084961   c0-8.3972778-12.2485962-6.796875-12.2485962-11.5582275c0-1.6359253,1.3806763-2.7258301,3.2008667-2.7258301   c1.1760864,0,2.2816162,0.4869995,3.1365356,1.3849487c0.6627808,0.696167,1.7060547,0.8636475,2.5810547,0.3255005   c0,0,0.1721802-0.105896,0.4186401-0.2575073c0.9869385-0.6069946,1.2161255-1.9814453,0.4293823-2.8320923   c-0.9057007-0.979248-1.9754028-1.6779785-3.149292-2.1129761C98.5807495,10.8891602,98,10.1190186,98,9.3817749V8.8028564   c0-1.0341187-0.8383179-1.8723755-1.8723755-1.8723755h-0.255249C94.8383179,6.930481,94,7.7685547,94,8.8817139v0.4920044   c0,0.8070679-0.5266113,1.4967651-1.2849731,1.7728882c-2.6885376,0.979126-4.6018066,3.1866455-4.6018066,6.4342041   c0,8.2507935,12.2485962,6.5061035,12.2485962,11.7402954c0,1.8179321-1.4561768,3.2341309-4.1820068,3.2341309   c-2.1138306,0-3.9343872-0.852356-4.7941284-2.7508545c-0.423584-0.9353638-1.4873657-1.5380249-2.5353394-1.2763062   l-0.4371338,0.1091919c-1.1668701,0.2914429-1.8584595,1.5629272-1.3701782,2.6619873   C88.1209717,33.725708,90.2184448,35.322998,92.6470337,36.0795288z"></path><path d="M117.7653809,33.3529053c-0.0033569,0-0.0065308,0-0.0098267,0c-1.180542,0-2.2606812,0.6657715-2.7909546,1.7211304   l-0.668335,1.3300781c-0.5466309,1.0878906-1.5588989,1.8676147-2.7502441,2.1183472l-2.0966187,0.4413452   c-2.4208374,0.5095825-4.4697266,2.1104736-5.5496826,4.3361816l-5.078186,10.3959351   c-3.0505981-2.8579712-7.1240845-4.5303955-11.392334-4.5303955c-4.4448242,0-8.6235352,1.730957-11.7670898,4.8740234   l-1.4732666,1.4735107C72.1411133,54.552063,69.8616333,54,67.4447021,54H52.4681396   c-2.9179077,0-5.694519,0.6132202-8.223938,1.6990356l-1.6592407-1.6594849   c-3.1435547-3.1430664-7.3222656-4.8740234-11.7670898-4.8740234c-5.8330078,0-11.3110352,3.1132812-14.2963867,8.125   C13.1845703,62.8920898,12.0224609,69.5029297,13.25,75.90625c2.2758789,11.8828125,0.4995117,24.3608398-5.0024414,35.1362305   l-1.7705078,3.4667969c-0.4589844,0.8984375-0.4384766,1.9589844,0.0546875,2.8374023   c0.4921875,0.8764648,1.3852539,1.4448242,2.3881836,1.5205078c0.6000977,0.0454102,1.2602539,0.0732422,1.9750977,0.0732422   c4.6199951,0,11.5152588-1.1727295,18.9955444-6.4936523l-0.1537476,3.4532471   c-0.0506592,1.1383667,0.8585205,2.0889893,1.9979858,2.0889893H40V90.7387695   c-1.0253906-1.1357422-4.2470703-5.199707-4.2470703-11.4057617c0-0.5522461,0.4477539-1,1-1s1,0.4477539,1,1   c0,6.3486328,3.90625,10.253418,3.9453125,10.2919922C41.8901367,89.8129883,42,90.0722656,42,90.3408203v27.6481934h37.9470825   c1.0806885,0,1.9658813-0.8584595,1.9990845-1.9385376l0.2730713-8.8809814   c9.7396851,9.8640137,19.2687378,11.7709351,25.1328125,11.7709351c0.7143555,0,1.3754883-0.027832,1.9750977-0.0732422   c1.0029297-0.0751953,1.8955078-0.6435547,2.3876953-1.5200195c0.4931641-0.878418,0.5136719-1.9389648,0.0551758-2.8374023   l-1.7705078-3.4672852c-5.5019531-10.7753906-7.2783203-23.253418-5.0024414-35.1362305   c0.053833-0.2810059,0.0776978-0.5639038,0.1223755-0.8455811l10.5371094-25.8535156l4.9620972-11.4819946   C121.5169067,35.6657104,120.012207,33.3599243,117.7653809,33.3529053z M31.6120605,73.7802734L30.005249,109.87146   c-8.6401978,6.6688232-16.5359497,7.3338623-20.9349365,7.0015869c-0.3388672-0.0253906-0.628418-0.2099609-0.7944336-0.5053711   c-0.1669922-0.2978516-0.1733398-0.6430664-0.0175781-0.9487305l1.7705078-3.4672852   c5.7036133-11.1694336,7.5449219-24.1040039,5.1850586-36.4213867c-1.1347656-5.921875-0.0600586-12.0361328,3.0253906-17.2163086   c2.6269531-4.4091797,7.4467773-7.1484375,12.5786133-7.1484375c3.9106445,0,7.5874023,1.5229492,10.3530273,4.2880859   l1.178833,1.1790161C36.2557373,60.0175781,32.0056152,66.3530884,31.6120605,73.7802734z M77.9544067,57.9788818   c-0.6077881-0.5358276-1.2595825-1.0192871-1.9447632-1.4585571l1.0665283-1.0667114   c2.765625-2.7651367,6.4423828-4.2880859,10.3530273-4.2880859c3.9649048,0,7.7388306,1.6403198,10.463562,4.4174194   l-5.3103027,10.7890625c-0.560791,1.1393433-2.02771,1.4743652-3.0275269,0.6914062L77.9544067,57.9788818z    M108.2182617,111.9516602l1.7705078,3.4672852c0.1557617,0.3051758,0.1494141,0.6513672-0.0180664,0.9487305   c-0.1655273,0.2954102-0.4550781,0.4799805-0.7939453,0.5053711c-5.3862305,0.4014893-16.0380859-0.6833496-26.871582-12.4978638   l0.362793-11.7989502l0.0516968,0.3519287l0.2349854-6.8890381c0.0470581-1.3776245,1.3860474-2.3371582,2.7056885-1.9388428   l5.3320923,1.6096191c4.2965088,1.296936,8.8352661-0.4369507,11.2265015-4.0540771   C101.395874,92.0606079,103.4539185,102.6216431,108.2182617,111.9516602z M118.7854614,36.9255371l-4.3885498,10.0615845   l-10.0679932,0.0097656l1.3701782-2.8238525c0.8040161-1.6569824,2.3599854-2.8727417,4.1622925-3.2521362l2.0966187-0.4412842   c1.7971191-0.3782959,3.3007202-1.536438,4.1253662-3.1775513l0.668335-1.3301392   c0.1918335-0.3818359,0.5765381-0.6190186,1.0039062-0.6190796l0.003418-0.0178833l0.000061,0.0179443   c0.5471191,0.001709,0.8378296,0.3568726,0.937439,0.5094604   C118.7960815,36.0150146,119.0041504,36.4241333,118.7854614,36.9255371z"></path></g></svg>