<svg height='100px' width='100px'  fill="#000000" xmlns="http://www.w3.org/2000/svg" xmlns:xlink="http://www.w3.org/1999/xlink" version="1.1" x="0px" y="0px" viewBox="0 0 128 128" style="enable-background:new 0 0 128 128;" xml:space="preserve"><g><path d="M79.3266602,65.019043l5.4370117-0.3647461l1.4775391-0.0991211c0.769043-0.0517578,1.362793-0.671875,1.3813477-1.4423828   c0.0175781-0.7470703-0.5268555-1.3920898-1.2666016-1.5l-1.5831909-0.2315674l-5.3162231-0.77771   c-0.0498047-0.0068359-0.0996094-0.0107422-0.1484375-0.0107422c-0.4560547,0-0.8642578,0.3056641-0.9643555,0.7451172   c-0.1699219,0.7431641-0.3139648,1.8666992-0.0366211,2.9970703c0,0,0,0,0,0.0004883   C78.4106445,64.7573242,78.8544922,65.0473633,79.3266602,65.019043z"></path><path d="M42,43.6821289c0.0874023,0,0.1757812-0.0117188,0.262207-0.0351562   C43.713501,43.2529907,44.9946899,42.7927856,46,42.3920898v3.75c0,0.3266602,0.159668,0.6328125,0.4277344,0.8198242   C46.5976562,47.0810547,46.7978516,47.1420898,47,47.1420898c0.1162109,0,0.2329102-0.0200195,0.3447266-0.0615234   c1.6775513-0.616333,2.800415-1.0720215,3.6552734-1.4403687v5.9081421c0,0.3515625,0.1845703,0.6767578,0.4858398,0.8574219   c0.3007812,0.1806641,0.675293,0.1899414,0.9853516,0.0249023c5.7583008-3.0751953,10.9492188-4.7001953,15.0107422-4.7001953   c6.293457,0,9.3291016,1.5141602,12.2641602,2.9780273c2.6616211,1.3276367,5.4135742,2.7001953,10.2744141,2.7001953   c10.0195312,0,16.2983398-4.402832,16.5605469-4.5898438C106.8442383,48.6308594,107,48.3276367,107,48.0048828V21.2944336   c0-0.3745117-0.2094727-0.7177734-0.5424805-0.8891602s-0.7333984-0.1430664-1.0385742,0.0756836   C105.4022827,20.4927979,104.9006348,20.8392334,104,21.322876v-4.1939697c0-0.3769531-0.2138672-0.7202148-0.5498047-0.890625   c-0.3374023-0.1704102-0.7416992-0.1357422-1.0454102,0.0874023C102.3876953,16.3379517,101.600769,16.8963013,100,17.5084229   v-4.7061768c0-0.3686523-0.2060547-0.7055664-0.53125-0.8798828c-0.3251953-0.1733398-0.7226562-0.1523438-1.0297852,0.0522461   c-0.0249023,0.0166016-2.5625,1.6674805-8.0537109,1.6674805c-4.434082,0-6.300293-0.9638672-8.4609375-2.0795898   c-2.4638672-1.2729492-5.2568359-2.715332-12.1020508-2.715332c-6.8867188,0-18.8208008,2.7368164-28.3051758,7.9677734   C41.1982422,16.9907227,41,17.3261719,41,17.6904297v24.9916992c0,0.3115234,0.1450195,0.6049805,0.3925781,0.7944336   C41.5688477,43.6113281,41.7827148,43.6821289,42,43.6821289z M103,24.038269c0.3570557-0.1566772,0.6936646-0.3110962,1-0.460144   c0.3704224-0.1802368,0.7062378-0.3533325,1-0.5126953v24.3974609c-1.5102539,0.9326172-7.0068359,3.9458008-14.9794922,3.9458008   c-4.3896484,0-6.703125-1.1538086-9.3813477-2.4897461c-2.996582-1.4946289-6.3925781-3.1884766-13.1572266-3.1884766   c-4.0302734,0-9.0117188,1.4389648-14.4819336,4.1748047V44.888855v-1.0018921v-1.0021973v-4.649292V25.440918   c5.5478516-2.894043,10.5449219-4.4208984,14.4819336-4.4208984c6.293457,0,9.3291016,1.5141602,12.2641602,2.9780273   c0.875,0.4364624,1.7677612,0.873291,2.7339478,1.269104c1.9729614,0.8081665,4.2775879,1.4310913,7.5404663,1.4310913   c5.0357056,0,9.1224976-1.1120605,11.9794922-2.2422485C102.3535767,24.3161621,102.6847534,24.1766357,103,24.038269z    M102,18.8393555v3.4417725c-2.675354,1.1465454-6.8012085,2.4171143-11.9794922,2.4171143   c-1.963623,0-3.5003052-0.2391968-4.8515015-0.6139526c-1.6694336-0.4630127-3.0496826-1.1374512-4.5298462-1.8757935   c-2.996582-1.4946289-6.3925781-3.1884766-13.1572266-3.1884766c-4.3891602,0-9.9052734,1.706543-15.953125,4.9355469   C51.2036133,24.1293945,51,24.46875,51,24.8378906v14.2774048v4.3388672c-0.7119141,0.3208618-1.6035156,0.7074585-3,1.2445679   v-3.1713867v-1.0923462v-0.7067871v-17.725769c7.6601562-3.5825195,14.2133789-5.949707,21.0791016-5.949707   c5.9599609,0,8.6518555,1.3193359,11.2553711,2.5947266c2.4575195,1.2045898,4.9985352,2.449707,9.921875,2.449707   c0.6335449,0,1.230835-0.0219727,1.8167114-0.0499878C96.9799805,20.8128052,100.2386475,19.6764526,102,18.8393555z M43,18.284668   c9.0996094-4.8842773,20.3154297-7.4375,26.8222656-7.4375c6.359375,0,8.8120117,1.2670898,11.184082,2.4921875   c2.1923828,1.1318359,4.4589844,2.3027344,9.3789062,2.3027344c3.6547852,0,6.15625-0.6762695,7.6147461-1.2460938V18   c0,0.0508423,0.0216064,0.0944824,0.0289307,0.1433105c-1.9246216,0.5217896-4.4949341,0.9538574-7.772583,0.9538574   c-4.4594727,0-6.6855469-1.0908203-9.0419922-2.2456055c-2.6772461-1.3120117-5.7119141-2.7988281-12.1352539-2.7988281   c-7.4082031,0-14.3549805,2.5625-22.5058594,6.4106445C46.2231445,20.628418,46,20.980957,46,21.3676758V40.229126   c-0.762085,0.3243408-1.7908325,0.7310791-3,1.1156006V18.284668z"></path><path d="M33.5,104c-3.0375366,0-5.5-2.4624634-5.5-5.5c0-1.2682495,0.4335327-2.4328003,1.1546631-3.3630981   c-2.3724976-3.1033936-3.7190552-6.0133667-4.3389893-7.5708618l-9.1019287,12.7984619   c-2.1538696,2.7792969-1.4119263,10.1410522,8.2706909,16.6184692c9.6826172,6.477356,13.6578979,0.6558228,13.6578979,0.6558228   l7.0130005-11.9024048c-2.8137207-0.7851562-5.2733765-1.9031982-7.4083862-3.2181396   C36.2644653,103.4348145,34.949707,104,33.5,104z"></path><path d="M103.9858398,74.1347656c-0.5668945-0.5664062-0.8789062-1.3198242-0.8789062-2.1210938   s0.3120117-1.5546875,0.8789062-2.121582l5.9980469-5.9980469c-5.222229-2.3051147-9.5758667,2.0942383-9.5758667,2.0942383   l-9.458252,8.4993286C90.5826416,74.8175049,90.1065063,75,89.6129761,75H70.9517212   c-0.2960205,0-0.5811157-0.1115723-0.7984619-0.3125l-5.0496216-4.6674805C64.7106323,69.6567383,64.9676514,69,65.5028687,69H79   c1.90271,0,3.5952759-0.8883057,4.694519-2.2698975l-4.2335815,0.2840576   c-0.0708008,0.0048828-0.1416016,0.0073242-0.2114258,0.0073242c-1.3701172,0-2.5644531-0.9023438-2.8847656-2.2104492   c-0.2973633-1.2124023-0.2875977-2.5307617,0.0288086-3.918457c0.3422852-1.4960938,1.8134766-2.4907227,3.3520508-2.2680664   l3.8920898,0.5693359C82.5372925,57.8546143,80.8686523,57,79,57H56.0292969c0,0-10.8352661-1.552063-22.3622437,18.1199341   l-7.4680176,10.5009766c0.0356445,0.0620117,0.0809326,0.1166382,0.1032104,0.1876831   c0.0227661,0.0728149,1.2437744,3.8150024,4.3949585,7.965271C31.5187378,93.2855225,32.4749146,93,33.5,93   c3.0375366,0,5.5,2.4624023,5.5,5.5c0,0.8538818-0.2003174,1.6590576-0.5475464,2.380127   c2.0581055,1.2637939,4.4243164,2.3309937,7.1373901,3.045166c0.0385132,0.0101318,0.0666504,0.0363159,0.1028442,0.0505371   l1.8067017-3.0663452c5.7634888-9.8359985,16.8374023-9.3562012,16.8374023-9.3562012   c19.4886475,0,29.0397949-2.638916,29.0397949-2.638916s7.2407837-7.2211304,12.5982666-12.8499146   c-0.0612793-0.0389404-0.1282959-0.0683594-0.1804199-0.1206055L103.9858398,74.1347656z"></path><path d="M79.5,30c-3.5898438,0-6.5,2.9101562-6.5,6.5c0,2.0067749,0.9105225,3.7999268,2.3397217,4.9923096   c0.4384766,0.3657837,0.9279785,0.6703491,1.453064,0.9115601C77.6177979,42.7828979,78.5325928,43,79.5,43   c1.2550659,0,2.4229126-0.3617554,3.4165039-0.9778442c0.4884644-0.3028564,0.9329834-0.6671753,1.3238525-1.0845947   C85.3287354,39.7754517,86,38.2178345,86,36.5C86,32.9101562,83.0898438,30,79.5,30z"></path><path d="M101.5473633,27.9887695c-0.2822266-0.184082-0.6391602-0.2128906-0.9482422-0.0791016   c-1.3066406,0.5712891-3.8769531,0.9858398-3.9023438,0.9902344c-0.5454102,0.0869141-0.9169922,0.5996094-0.8300781,1.1445312   c0.0869141,0.5458984,0.6030273,0.9130859,1.1445312,0.8305664C97.0961914,30.8613281,98.5981445,30.6191406,100,30.2236328   v9.7315674V40c0,0.4129028,0.2506714,0.7667847,0.6077881,0.9193726C100.7283325,40.9708862,100.8606567,41,101,41   c0.1740723,0,0.3295288-0.0563354,0.4721069-0.1345215C101.7817993,40.6955566,102,40.3781738,102,40v-0.1694336V28.8256836   C102,28.4882812,101.8295898,28.1733398,101.5473633,27.9887695z"></path><path d="M61.1889648,41.0693359C59.9521484,41.300293,58.828125,41.6420898,58,41.9316406v-5.8956909V32   c0-0.5522461-0.4477539-1-1-1s-1,0.4477539-1,1v4.9157715v5.7820435v0.6967163c0,0.1046753,0.0214233,0.2050781,0.0524902,0.302124   c0.0695801,0.2177124,0.2078247,0.4104004,0.4050293,0.5377197c0.1645508,0.105957,0.3530273,0.1601562,0.5429688,0.1601562   c0.1396484,0,0.2797852-0.0292969,0.4111328-0.0888672c0.0136719-0.0059814,0.994873-0.4412231,2.3701782-0.8414307   c0.5428467-0.157959,1.1408081-0.310791,1.774353-0.4290771c0.3928223-0.0731201,0.682373-0.3696289,0.7775269-0.7321167   c0.036377-0.1384888,0.0498657-0.2842407,0.0217896-0.4343872C62.2539062,41.3256836,61.7338867,40.9638672,61.1889648,41.0693359z   "></path><path d="M114.1337891,63.7456055c-0.1616211-0.1616211-0.3740234-0.2421875-0.5864258-0.2421875   s-0.425293,0.0805664-0.5869141,0.2426758l-1.239624,1.239624l-6.3209229,6.3209229   c-0.1889648,0.1889648-0.2929688,0.4399414-0.2929688,0.7070312s0.1040039,0.5180664,0.2929688,0.706543l1.050293,1.0507812   l6.0372925-6.9528809l1.6863403-1.9421387C114.4580078,64.5488281,114.4404297,64.0522461,114.1337891,63.7456055z"></path></g></svg>